# Blender v3.0.0 Alpha OBJ File: 'lobby.blend'
# www.blender.org
mtllib lobby.mtl
g Plane.001
v -5.000000 0.000000 6.886329
v 7.737855 0.000000 6.886329
v -5.000000 0.000000 -5.000000
v 7.737855 0.000000 -5.000000
v -5.000000 7.991703 6.886329
v -5.000000 7.991703 -5.000000
v 7.709684 7.991703 -5.000000
v 7.681514 7.991703 6.886329
vt 0.000000 0.000000
vt 1.000000 0.000000
vt 1.000000 1.000000
vt 0.000000 1.000000
vt 1.000000 1.000000
vt 0.000000 1.000000
vt 0.000000 0.000000
vt 0.000000 1.000000
vt 0.000000 0.000000
vn 0.0000 1.0000 0.0000
vn 0.0000 0.0000 1.0000
vn 1.0000 0.0000 0.0000
vn 0.0000 -1.0000 0.0000
usemtl paredes
s off
f 1/1/1 2/2/1 4/3/1 3/4/1
f 3/4/2 4/3/2 7/5/2 6/6/2
f 1/1/3 3/4/3 6/6/3 5/7/3
f 5/7/4 6/6/4 7/8/4 8/9/4
g banca_Cube
v -0.372260 0.432379 2.643900
v -0.372260 0.495627 2.643900
v -0.372260 0.432379 -1.419512
v -0.372260 0.495627 -1.419512
v 0.372260 0.432379 2.643900
v 0.372260 0.495627 2.643900
v 0.372260 0.432379 -1.419512
v 0.372260 0.495627 -1.419512
v 0.137667 -0.005925 -1.218017
v 0.137667 0.449088 -1.218017
v 0.137667 -0.005925 -1.333993
v 0.137667 0.449088 -1.333993
v 0.253643 -0.005925 -1.218017
v 0.253643 0.449088 -1.218017
v 0.253643 -0.005925 -1.333993
v 0.253643 0.449088 -1.333993
v -0.278447 -0.005925 -1.218017
v -0.278447 0.449088 -1.218017
v -0.278447 -0.005925 -1.333993
v -0.278447 0.449088 -1.333993
v -0.162471 -0.005925 -1.218017
v -0.162471 0.449088 -1.218017
v -0.162471 -0.005925 -1.333993
v -0.162471 0.449088 -1.333993
v 0.137667 -0.005925 2.543056
v 0.137667 0.449088 2.543056
v 0.137667 -0.005925 2.427080
v 0.137667 0.449088 2.427080
v 0.253643 -0.005925 2.543056
v 0.253643 0.449088 2.543056
v 0.253643 -0.005925 2.427080
v 0.253643 0.449088 2.427080
v -0.278447 -0.005925 2.543056
v -0.278447 0.449088 2.543056
v -0.278447 -0.005925 2.427080
v -0.278447 0.449088 2.427080
v -0.162471 -0.005925 2.543056
v -0.162471 0.449088 2.543056
v -0.162471 -0.005925 2.427080
v -0.162471 0.449088 2.427080
vt 0.389268 0.984822
vt 0.372344 0.984790
vt 0.372344 0.015210
vt 0.389268 0.015242
vt 0.372344 0.000118
vt 0.194693 0.015210
vt 0.194693 0.000118
vt 0.177769 0.015178
vt 0.194693 0.984790
vt 0.177769 0.984758
vt 0.194693 0.999882
vt 0.372344 0.999882
vt 0.000118 0.015178
vt 0.000118 0.984758
vt 0.498582 0.329957
vt 0.389503 0.329957
vt 0.389503 0.302154
vt 0.498582 0.302154
vt 0.389503 0.274352
vt 0.498582 0.274352
vt 0.389503 0.246549
vt 0.498582 0.246549
vt 0.389503 0.218746
vt 0.498582 0.218746
vt 0.389503 0.469676
vt 0.417306 0.469676
vt 0.417306 0.497479
vt 0.389503 0.497479
vt 0.498582 0.441403
vt 0.389503 0.441403
vt 0.389503 0.413600
vt 0.498582 0.413600
vt 0.389503 0.385798
vt 0.498582 0.385798
vt 0.389503 0.357995
vt 0.498582 0.357995
vt 0.389503 0.330192
vt 0.498582 0.330192
vt 0.445579 0.441638
vt 0.473381 0.441638
vt 0.473381 0.469441
vt 0.445579 0.469441
vt 0.389503 0.218511
vt 0.389503 0.109432
vt 0.417306 0.109432
vt 0.417306 0.218511
vt 0.445108 0.109432
vt 0.445108 0.218511
vt 0.472911 0.109432
vt 0.472911 0.218511
vt 0.500714 0.109432
vt 0.500714 0.218511
vt 0.417541 0.441638
vt 0.445343 0.441638
vt 0.445343 0.469441
vt 0.417541 0.469441
vt 0.389503 0.109197
vt 0.389503 0.000118
vt 0.417306 0.000118
vt 0.417306 0.109197
vt 0.445108 0.000118
vt 0.445108 0.109197
vt 0.472911 0.000118
vt 0.472911 0.109197
vt 0.500714 0.000118
vt 0.500714 0.109197
vt 0.389503 0.441638
vt 0.417306 0.441638
vt 0.417306 0.469441
vt 0.389503 0.469441
vn -1.0000 0.0000 0.0000
vn 0.0000 0.0000 -1.0000
vn 1.0000 0.0000 0.0000
vn 0.0000 0.0000 1.0000
vn 0.0000 -1.0000 0.0000
vn 0.0000 1.0000 0.0000
usemtl banca
s off
f 9/10/5 10/11/5 12/12/5 11/13/5
f 11/14/6 12/12/6 16/15/6 15/16/6
f 15/17/7 16/15/7 14/18/7 13/19/7
f 13/20/8 14/18/8 10/11/8 9/21/8
f 11/22/9 15/17/9 13/19/9 9/23/9
f 16/15/10 12/12/10 10/11/10 14/18/10
f 17/24/5 18/25/5 20/26/5 19/27/5
f 19/27/6 20/26/6 24/28/6 23/29/6
f 23/29/7 24/28/7 22/30/7 21/31/7
f 21/31/8 22/30/8 18/32/8 17/33/8
f 19/34/9 23/35/9 21/36/9 17/37/9
f 25/38/5 26/39/5 28/40/5 27/41/5
f 27/41/6 28/40/6 32/42/6 31/43/6
f 31/43/7 32/42/7 30/44/7 29/45/7
f 29/45/8 30/44/8 26/46/8 25/47/8
f 27/48/9 31/49/9 29/50/9 25/51/9
f 33/52/5 34/53/5 36/54/5 35/55/5
f 35/55/6 36/54/6 40/56/6 39/57/6
f 39/57/7 40/56/7 38/58/7 37/59/7
f 37/59/8 38/58/8 34/60/8 33/61/8
f 35/62/9 39/63/9 37/64/9 33/65/9
f 41/66/5 42/67/5 44/68/5 43/69/5
f 43/69/6 44/68/6 48/70/6 47/71/6
f 47/71/7 48/70/7 46/72/7 45/73/7
f 45/73/8 46/72/8 42/74/8 41/75/8
f 43/76/9 47/77/9 45/78/9 41/79/9
g Cube_Cube.001
v -4.240514 -0.066642 3.854417
v -4.240514 2.927367 3.854417
v -4.240514 -0.066642 -2.987447
v -4.240514 2.927367 -2.987447
v -2.240514 -0.066642 3.854417
v -2.240514 2.927367 3.854417
v -2.240514 -0.066642 -2.987447
v -2.240514 2.927367 -2.987447
vt 0.914030 0.809155
vt 0.640073 0.809155
vt 0.640073 0.183113
vt 0.914030 0.183113
vt 0.183114 0.000110
vt 0.457070 0.000110
vt 0.457070 0.183114
vt 0.183114 0.183114
vt 0.457070 0.809155
vt 0.183114 0.809155
vt 0.457070 0.992158
vt 0.183114 0.992158
vt 0.000110 0.183114
vt 0.000111 0.809155
vn -1.0000 0.0000 0.0000
vn 0.0000 0.0000 -1.0000
vn 1.0000 0.0000 0.0000
vn 0.0000 0.0000 1.0000
vn 0.0000 -1.0000 0.0000
vn 0.0000 1.0000 0.0000
usemtl casilleros
s off
f 49/80/11 50/81/11 52/82/11 51/83/11
f 51/84/12 52/85/12 56/86/12 55/87/12
f 55/87/13 56/86/13 54/88/13 53/89/13
f 53/89/14 54/88/14 50/90/14 49/91/14
f 51/92/15 55/87/15 53/89/15 49/93/15
f 56/86/16 52/82/16 50/81/16 54/88/16
g casilleros_Cube.003
v -2.283588 0.094675 -2.035654
v -2.283588 1.445898 -2.035654
v -2.283588 0.094675 -2.784827
v -2.283588 1.445898 -2.784827
v -2.190209 0.094675 -2.035654
v -2.190209 1.445898 -2.035654
v -2.190209 0.094675 -2.784827
v -2.190209 1.445898 -2.784827
v -2.283588 0.094675 -1.211563
v -2.283588 1.445898 -1.211563
v -2.283588 0.094675 -1.960737
v -2.283588 1.445898 -1.960737
v -2.190209 0.094675 -1.211563
v -2.190209 1.445898 -1.211563
v -2.190209 0.094675 -1.960737
v -2.190209 1.445898 -1.960737
v -2.283588 0.094675 -0.387473
v -2.283588 1.445898 -0.387473
v -2.283588 0.094675 -1.136646
v -2.283588 1.445898 -1.136646
v -2.190209 0.094675 -0.387473
v -2.190209 1.445898 -0.387473
v -2.190209 0.094675 -1.136646
v -2.190209 1.445898 -1.136646
v -2.283588 0.094675 0.436617
v -2.283588 1.445898 0.436617
v -2.283588 0.094675 -0.312556
v -2.283588 1.445898 -0.312556
v -2.190209 0.094675 0.436617
v -2.190209 1.445898 0.436617
v -2.190209 0.094675 -0.312556
v -2.190209 1.445898 -0.312556
v -2.283588 0.094675 1.260708
v -2.283588 1.445898 1.260708
v -2.283588 0.094675 0.511535
v -2.283588 1.445898 0.511535
v -2.190209 0.094675 1.260708
v -2.190209 1.445898 1.260708
v -2.190209 0.094675 0.511535
v -2.190209 1.445898 0.511535
v -2.283588 0.094675 2.084798
v -2.283588 1.445898 2.084798
v -2.283588 0.094675 1.335625
v -2.283588 1.445898 1.335625
v -2.190209 0.094675 2.084798
v -2.190209 1.445898 2.084798
v -2.190209 0.094675 1.335625
v -2.190209 1.445898 1.335625
v -2.283588 0.094675 2.908888
v -2.283588 1.445898 2.908888
v -2.283588 0.094675 2.159715
v -2.283588 1.445898 2.159715
v -2.190209 0.094675 2.908888
v -2.190209 1.445898 2.908888
v -2.190209 0.094675 2.159715
v -2.190209 1.445898 2.159715
v -2.283588 0.094675 3.732979
v -2.283588 1.445898 3.732979
v -2.283588 0.094675 2.983806
v -2.283588 1.445898 2.983806
v -2.190209 0.094675 3.732979
v -2.190209 1.445898 3.732979
v -2.190209 0.094675 2.983806
v -2.190209 1.445898 2.983806
v -2.283588 1.499947 -2.035654
v -2.283588 2.851170 -2.035654
v -2.283588 1.499947 -2.784827
v -2.283588 2.851170 -2.784827
v -2.190209 1.499947 -2.035654
v -2.190209 2.851170 -2.035654
v -2.190209 1.499947 -2.784827
v -2.190209 2.851170 -2.784827
v -2.283588 1.499947 -1.211563
v -2.283588 2.851170 -1.211563
v -2.283588 1.499947 -1.960737
v -2.283588 2.851170 -1.960737
v -2.190209 1.499947 -1.211563
v -2.190209 2.851170 -1.211563
v -2.190209 1.499947 -1.960737
v -2.190209 2.851170 -1.960737
v -2.283588 1.499947 -0.387473
v -2.283588 2.851170 -0.387473
v -2.283588 1.499947 -1.136646
v -2.283588 2.851170 -1.136646
v -2.190209 1.499947 -0.387473
v -2.190209 2.851170 -0.387473
v -2.190209 1.499947 -1.136646
v -2.190209 2.851170 -1.136646
v -2.283588 1.499947 0.436617
v -2.283588 2.851170 0.436617
v -2.283588 1.499947 -0.312556
v -2.283588 2.851170 -0.312556
v -2.190209 1.499947 0.436617
v -2.190209 2.851170 0.436617
v -2.190209 1.499947 -0.312556
v -2.190209 2.851170 -0.312556
v -2.283588 1.499947 1.260708
v -2.283588 2.851170 1.260708
v -2.283588 1.499947 0.511535
v -2.283588 2.851170 0.511535
v -2.190209 1.499947 1.260708
v -2.190209 2.851170 1.260708
v -2.190209 1.499947 0.511535
v -2.190209 2.851170 0.511535
v -2.283588 1.499947 2.084798
v -2.283588 2.851170 2.084798
v -2.283588 1.499947 1.335625
v -2.283588 2.851170 1.335625
v -2.190209 1.499947 2.084798
v -2.190209 2.851170 2.084798
v -2.190209 1.499947 1.335625
v -2.190209 2.851170 1.335625
v -2.283588 1.499947 2.908888
v -2.283588 2.851170 2.908888
v -2.283588 1.499947 2.159715
v -2.283588 2.851170 2.159715
v -2.190209 1.499947 2.908888
v -2.190209 2.851170 2.908888
v -2.190209 1.499947 2.159715
v -2.190209 2.851170 2.159715
v -2.283588 1.499947 3.732979
v -2.283588 2.851170 3.732979
v -2.283588 1.499947 2.983806
v -2.283588 2.851170 2.983806
v -2.190209 1.499947 3.732979
v -2.190209 2.851170 3.732979
v -2.190209 1.499947 2.983806
v -2.190209 2.851170 2.983806
vt 0.922795 0.264477
vt 0.922795 0.140838
vt 0.991345 0.140838
vt 0.991346 0.264477
vt 0.999890 0.008655
vt 0.999890 0.132294
vt 0.991345 0.132294
vt 0.991346 0.008655
vt 0.922795 0.132294
vt 0.922795 0.008655
vt 0.914251 0.132294
vt 0.914251 0.008655
vt 0.991346 0.000110
vt 0.922795 0.000110
vt 0.922795 0.264477
vt 0.922795 0.140838
vt 0.991345 0.140838
vt 0.991346 0.264477
vt 0.999890 0.008655
vt 0.999890 0.132294
vt 0.991345 0.132294
vt 0.991346 0.008655
vt 0.922795 0.132294
vt 0.922795 0.008655
vt 0.914251 0.132294
vt 0.914251 0.008655
vt 0.991346 0.000110
vt 0.922795 0.000110
vt 0.922795 0.264477
vt 0.922795 0.140838
vt 0.991345 0.140838
vt 0.991346 0.264477
vt 0.999890 0.008655
vt 0.999890 0.132294
vt 0.991345 0.132294
vt 0.991346 0.008655
vt 0.922795 0.132294
vt 0.922795 0.008655
vt 0.914251 0.132294
vt 0.914251 0.008655
vt 0.991346 0.000110
vt 0.922795 0.000110
vt 0.922795 0.264477
vt 0.922795 0.140838
vt 0.991345 0.140838
vt 0.991346 0.264477
vt 0.999890 0.008655
vt 0.999890 0.132294
vt 0.991345 0.132294
vt 0.991346 0.008655
vt 0.922795 0.132294
vt 0.922795 0.008655
vt 0.914251 0.132294
vt 0.914251 0.008655
vt 0.991346 0.000110
vt 0.922795 0.000110
vt 0.922795 0.264477
vt 0.922795 0.140838
vt 0.991345 0.140838
vt 0.991346 0.264477
vt 0.999890 0.008655
vt 0.999890 0.132294
vt 0.991345 0.132294
vt 0.991346 0.008655
vt 0.922795 0.132294
vt 0.922795 0.008655
vt 0.914251 0.132294
vt 0.914251 0.008655
vt 0.991346 0.000110
vt 0.922795 0.000110
vt 0.922795 0.264477
vt 0.922795 0.140838
vt 0.991345 0.140838
vt 0.991346 0.264477
vt 0.999890 0.008655
vt 0.999890 0.132294
vt 0.991345 0.132294
vt 0.991346 0.008655
vt 0.922795 0.132294
vt 0.922795 0.008655
vt 0.914251 0.132294
vt 0.914251 0.008655
vt 0.991346 0.000110
vt 0.922795 0.000110
vt 0.922795 0.264477
vt 0.922795 0.140838
vt 0.991345 0.140838
vt 0.991346 0.264477
vt 0.999890 0.008655
vt 0.999890 0.132294
vt 0.991345 0.132294
vt 0.991346 0.008655
vt 0.922795 0.132294
vt 0.922795 0.008655
vt 0.914251 0.132294
vt 0.914251 0.008655
vt 0.991346 0.000110
vt 0.922795 0.000110
vt 0.922795 0.264477
vt 0.922795 0.140838
vt 0.991345 0.140838
vt 0.991346 0.264477
vt 0.999890 0.008655
vt 0.999890 0.132294
vt 0.991345 0.132294
vt 0.991346 0.008655
vt 0.922795 0.132294
vt 0.922795 0.008655
vt 0.914251 0.132294
vt 0.914251 0.008655
vt 0.991346 0.000110
vt 0.922795 0.000110
vt 0.922795 0.264477
vt 0.922795 0.140838
vt 0.991345 0.140838
vt 0.991346 0.264477
vt 0.999890 0.008655
vt 0.999890 0.132294
vt 0.991345 0.132294
vt 0.991346 0.008655
vt 0.922795 0.132294
vt 0.922795 0.008655
vt 0.914251 0.132294
vt 0.914251 0.008655
vt 0.991346 0.000110
vt 0.922795 0.000110
vt 0.922795 0.264477
vt 0.922795 0.140838
vt 0.991345 0.140838
vt 0.991346 0.264477
vt 0.999890 0.008655
vt 0.999890 0.132294
vt 0.991345 0.132294
vt 0.991346 0.008655
vt 0.922795 0.132294
vt 0.922795 0.008655
vt 0.914251 0.132294
vt 0.914251 0.008655
vt 0.991346 0.000110
vt 0.922795 0.000110
vt 0.922795 0.264477
vt 0.922795 0.140838
vt 0.991345 0.140838
vt 0.991346 0.264477
vt 0.999890 0.008655
vt 0.999890 0.132294
vt 0.991345 0.132294
vt 0.991346 0.008655
vt 0.922795 0.132294
vt 0.922795 0.008655
vt 0.914251 0.132294
vt 0.914251 0.008655
vt 0.991346 0.000110
vt 0.922795 0.000110
vt 0.922795 0.264477
vt 0.922795 0.140838
vt 0.991345 0.140838
vt 0.991346 0.264477
vt 0.999890 0.008655
vt 0.999890 0.132294
vt 0.991345 0.132294
vt 0.991346 0.008655
vt 0.922795 0.132294
vt 0.922795 0.008655
vt 0.914251 0.132294
vt 0.914251 0.008655
vt 0.991346 0.000110
vt 0.922795 0.000110
vt 0.922795 0.264477
vt 0.922795 0.140838
vt 0.991345 0.140838
vt 0.991346 0.264477
vt 0.999890 0.008655
vt 0.999890 0.132294
vt 0.991345 0.132294
vt 0.991346 0.008655
vt 0.922795 0.132294
vt 0.922795 0.008655
vt 0.914251 0.132294
vt 0.914251 0.008655
vt 0.991346 0.000110
vt 0.922795 0.000110
vt 0.922795 0.264477
vt 0.922795 0.140838
vt 0.991345 0.140838
vt 0.991346 0.264477
vt 0.999890 0.008655
vt 0.999890 0.132294
vt 0.991345 0.132294
vt 0.991346 0.008655
vt 0.922795 0.132294
vt 0.922795 0.008655
vt 0.914251 0.132294
vt 0.914251 0.008655
vt 0.991346 0.000110
vt 0.922795 0.000110
vt 0.922795 0.264477
vt 0.922795 0.140838
vt 0.991345 0.140838
vt 0.991346 0.264477
vt 0.999890 0.008655
vt 0.999890 0.132294
vt 0.991345 0.132294
vt 0.991346 0.008655
vt 0.922795 0.132294
vt 0.922795 0.008655
vt 0.914251 0.132294
vt 0.914251 0.008655
vt 0.991346 0.000110
vt 0.922795 0.000110
vt 0.922795 0.264477
vt 0.922795 0.140838
vt 0.991345 0.140838
vt 0.991346 0.264477
vt 0.999890 0.008655
vt 0.999890 0.132294
vt 0.991345 0.132294
vt 0.991346 0.008655
vt 0.922795 0.132294
vt 0.922795 0.008655
vt 0.914251 0.132294
vt 0.914251 0.008655
vt 0.991346 0.000110
vt 0.922795 0.000110
vn -1.0000 0.0000 0.0000
vn 0.0000 0.0000 -1.0000
vn 1.0000 0.0000 0.0000
vn 0.0000 0.0000 1.0000
vn 0.0000 1.0000 0.0000
vn 0.0000 -1.0000 0.0000
usemtl casilleros
s off
f 57/94/17 58/95/17 60/96/17 59/97/17
f 59/98/18 60/99/18 64/100/18 63/101/18
f 63/101/19 64/100/19 62/102/19 61/103/19
f 61/103/20 62/102/20 58/104/20 57/105/20
f 58/95/21 62/102/21 64/100/21 60/96/21
f 59/106/22 63/101/22 61/103/22 57/107/22
f 65/108/17 66/109/17 68/110/17 67/111/17
f 67/112/18 68/113/18 72/114/18 71/115/18
f 71/115/19 72/114/19 70/116/19 69/117/19
f 69/117/20 70/116/20 66/118/20 65/119/20
f 66/109/21 70/116/21 72/114/21 68/110/21
f 67/120/22 71/115/22 69/117/22 65/121/22
f 73/122/17 74/123/17 76/124/17 75/125/17
f 75/126/18 76/127/18 80/128/18 79/129/18
f 79/129/19 80/128/19 78/130/19 77/131/19
f 77/131/20 78/130/20 74/132/20 73/133/20
f 74/123/21 78/130/21 80/128/21 76/124/21
f 75/134/22 79/129/22 77/131/22 73/135/22
f 81/136/17 82/137/17 84/138/17 83/139/17
f 83/140/18 84/141/18 88/142/18 87/143/18
f 87/143/19 88/142/19 86/144/19 85/145/19
f 85/145/20 86/144/20 82/146/20 81/147/20
f 82/137/21 86/144/21 88/142/21 84/138/21
f 83/148/22 87/143/22 85/145/22 81/149/22
f 89/150/17 90/151/17 92/152/17 91/153/17
f 91/154/18 92/155/18 96/156/18 95/157/18
f 95/157/19 96/156/19 94/158/19 93/159/19
f 93/159/20 94/158/20 90/160/20 89/161/20
f 90/151/21 94/158/21 96/156/21 92/152/21
f 91/162/22 95/157/22 93/159/22 89/163/22
f 97/164/17 98/165/17 100/166/17 99/167/17
f 99/168/18 100/169/18 104/170/18 103/171/18
f 103/171/19 104/170/19 102/172/19 101/173/19
f 101/173/20 102/172/20 98/174/20 97/175/20
f 98/165/21 102/172/21 104/170/21 100/166/21
f 99/176/22 103/171/22 101/173/22 97/177/22
f 105/178/17 106/179/17 108/180/17 107/181/17
f 107/182/18 108/183/18 112/184/18 111/185/18
f 111/185/19 112/184/19 110/186/19 109/187/19
f 109/187/20 110/186/20 106/188/20 105/189/20
f 106/179/21 110/186/21 112/184/21 108/180/21
f 107/190/22 111/185/22 109/187/22 105/191/22
f 113/192/17 114/193/17 116/194/17 115/195/17
f 115/196/18 116/197/18 120/198/18 119/199/18
f 119/199/19 120/198/19 118/200/19 117/201/19
f 117/201/20 118/200/20 114/202/20 113/203/20
f 114/193/21 118/200/21 120/198/21 116/194/21
f 115/204/22 119/199/22 117/201/22 113/205/22
f 121/206/17 122/207/17 124/208/17 123/209/17
f 123/210/18 124/211/18 128/212/18 127/213/18
f 127/213/19 128/212/19 126/214/19 125/215/19
f 125/215/20 126/214/20 122/216/20 121/217/20
f 122/207/21 126/214/21 128/212/21 124/208/21
f 123/218/22 127/213/22 125/215/22 121/219/22
f 129/220/17 130/221/17 132/222/17 131/223/17
f 131/224/18 132/225/18 136/226/18 135/227/18
f 135/227/19 136/226/19 134/228/19 133/229/19
f 133/229/20 134/228/20 130/230/20 129/231/20
f 130/221/21 134/228/21 136/226/21 132/222/21
f 131/232/22 135/227/22 133/229/22 129/233/22
f 137/234/17 138/235/17 140/236/17 139/237/17
f 139/238/18 140/239/18 144/240/18 143/241/18
f 143/241/19 144/240/19 142/242/19 141/243/19
f 141/243/20 142/242/20 138/244/20 137/245/20
f 138/235/21 142/242/21 144/240/21 140/236/21
f 139/246/22 143/241/22 141/243/22 137/247/22
f 145/248/17 146/249/17 148/250/17 147/251/17
f 147/252/18 148/253/18 152/254/18 151/255/18
f 151/255/19 152/254/19 150/256/19 149/257/19
f 149/257/20 150/256/20 146/258/20 145/259/20
f 146/249/21 150/256/21 152/254/21 148/250/21
f 147/260/22 151/255/22 149/257/22 145/261/22
f 153/262/17 154/263/17 156/264/17 155/265/17
f 155/266/18 156/267/18 160/268/18 159/269/18
f 159/269/19 160/268/19 158/270/19 157/271/19
f 157/271/20 158/270/20 154/272/20 153/273/20
f 154/263/21 158/270/21 160/268/21 156/264/21
f 155/274/22 159/269/22 157/271/22 153/275/22
f 161/276/17 162/277/17 164/278/17 163/279/17
f 163/280/18 164/281/18 168/282/18 167/283/18
f 167/283/19 168/282/19 166/284/19 165/285/19
f 165/285/20 166/284/20 162/286/20 161/287/20
f 162/277/21 166/284/21 168/282/21 164/278/21
f 163/288/22 167/283/22 165/285/22 161/289/22
f 169/290/17 170/291/17 172/292/17 171/293/17
f 171/294/18 172/295/18 176/296/18 175/297/18
f 175/297/19 176/296/19 174/298/19 173/299/19
f 173/299/20 174/298/20 170/300/20 169/301/20
f 170/291/21 174/298/21 176/296/21 172/292/21
f 171/302/22 175/297/22 173/299/22 169/303/22
f 177/304/17 178/305/17 180/306/17 179/307/17
f 179/308/18 180/309/18 184/310/18 183/311/18
f 183/311/19 184/310/19 182/312/19 181/313/19
f 181/313/20 182/312/20 178/314/20 177/315/20
f 178/305/21 182/312/21 184/310/21 180/306/21
f 179/316/22 183/311/22 181/313/22 177/317/22
g banca.001_Cube.004
v 3.706582 0.432379 -1.439975
v 3.706582 0.495627 -1.439975
v -0.356831 0.432379 -1.439975
v -0.356831 0.495627 -1.439975
v 3.706582 0.432379 -2.184494
v 3.706582 0.495627 -2.184494
v -0.356831 0.432379 -2.184494
v -0.356831 0.495627 -2.184494
v -0.155335 -0.005925 -1.949901
v -0.155335 0.449088 -1.949901
v -0.271311 -0.005925 -1.949901
v -0.271311 0.449088 -1.949901
v -0.155335 -0.005925 -2.065878
v -0.155335 0.449088 -2.065878
v -0.271311 -0.005925 -2.065878
v -0.271311 0.449088 -2.065878
v -0.155335 -0.005925 -1.533787
v -0.155335 0.449088 -1.533787
v -0.271311 -0.005925 -1.533787
v -0.271311 0.449088 -1.533787
v -0.155335 -0.005925 -1.649763
v -0.155335 0.449088 -1.649763
v -0.271311 -0.005925 -1.649763
v -0.271311 0.449088 -1.649763
v 3.605738 -0.005925 -1.949901
v 3.605738 0.449088 -1.949901
v 3.489762 -0.005925 -1.949901
v 3.489762 0.449088 -1.949901
v 3.605738 -0.005925 -2.065878
v 3.605738 0.449088 -2.065878
v 3.489762 -0.005925 -2.065878
v 3.489762 0.449088 -2.065878
v 3.605738 -0.005925 -1.533787
v 3.605738 0.449088 -1.533787
v 3.489762 -0.005925 -1.533787
v 3.489762 0.449088 -1.533787
v 3.605738 -0.005925 -1.649763
v 3.605738 0.449088 -1.649763
v 3.489762 -0.005925 -1.649763
v 3.489762 0.449088 -1.649763
vt 0.389268 0.984822
vt 0.372344 0.984790
vt 0.372344 0.015210
vt 0.389268 0.015242
vt 0.372344 0.000118
vt 0.194693 0.015210
vt 0.194693 0.000118
vt 0.177769 0.015178
vt 0.194693 0.984790
vt 0.177769 0.984758
vt 0.194693 0.999882
vt 0.372344 0.999882
vt 0.000118 0.015178
vt 0.000118 0.984758
vt 0.498582 0.329957
vt 0.389503 0.329957
vt 0.389503 0.302154
vt 0.498582 0.302154
vt 0.389503 0.274352
vt 0.498582 0.274352
vt 0.389503 0.246549
vt 0.498582 0.246549
vt 0.389503 0.218746
vt 0.498582 0.218746
vt 0.389503 0.469676
vt 0.417306 0.469676
vt 0.417306 0.497479
vt 0.389503 0.497479
vt 0.498582 0.441403
vt 0.389503 0.441403
vt 0.389503 0.413600
vt 0.498582 0.413600
vt 0.389503 0.385798
vt 0.498582 0.385798
vt 0.389503 0.357995
vt 0.498582 0.357995
vt 0.389503 0.330192
vt 0.498582 0.330192
vt 0.445579 0.441638
vt 0.473381 0.441638
vt 0.473381 0.469441
vt 0.445579 0.469441
vt 0.389503 0.218511
vt 0.389503 0.109432
vt 0.417306 0.109432
vt 0.417306 0.218511
vt 0.445108 0.109432
vt 0.445108 0.218511
vt 0.472911 0.109432
vt 0.472911 0.218511
vt 0.500714 0.109432
vt 0.500714 0.218511
vt 0.417541 0.441638
vt 0.445343 0.441638
vt 0.445343 0.469441
vt 0.417541 0.469441
vt 0.389503 0.109197
vt 0.389503 0.000118
vt 0.417306 0.000118
vt 0.417306 0.109197
vt 0.445108 0.000118
vt 0.445108 0.109197
vt 0.472911 0.000118
vt 0.472911 0.109197
vt 0.500714 0.000118
vt 0.500714 0.109197
vt 0.389503 0.441638
vt 0.417306 0.441638
vt 0.417306 0.469441
vt 0.389503 0.469441
vn 0.0000 0.0000 1.0000
vn -1.0000 0.0000 0.0000
vn -0.0000 0.0000 -1.0000
vn 1.0000 0.0000 0.0000
vn 0.0000 -1.0000 0.0000
vn 0.0000 1.0000 0.0000
usemtl banca
s off
f 185/318/23 186/319/23 188/320/23 187/321/23
f 187/322/24 188/320/24 192/323/24 191/324/24
f 191/325/25 192/323/25 190/326/25 189/327/25
f 189/328/26 190/326/26 186/319/26 185/329/26
f 187/330/27 191/325/27 189/327/27 185/331/27
f 192/323/28 188/320/28 186/319/28 190/326/28
f 193/332/23 194/333/23 196/334/23 195/335/23
f 195/335/24 196/334/24 200/336/24 199/337/24
f 199/337/25 200/336/25 198/338/25 197/339/25
f 197/339/26 198/338/26 194/340/26 193/341/26
f 195/342/27 199/343/27 197/344/27 193/345/27
f 201/346/23 202/347/23 204/348/23 203/349/23
f 203/349/24 204/348/24 208/350/24 207/351/24
f 207/351/25 208/350/25 206/352/25 205/353/25
f 205/353/26 206/352/26 202/354/26 201/355/26
f 203/356/27 207/357/27 205/358/27 201/359/27
f 209/360/23 210/361/23 212/362/23 211/363/23
f 211/363/24 212/362/24 216/364/24 215/365/24
f 215/365/25 216/364/25 214/366/25 213/367/25
f 213/367/26 214/366/26 210/368/26 209/369/26
f 211/370/27 215/371/27 213/372/27 209/373/27
f 217/374/23 218/375/23 220/376/23 219/377/23
f 219/377/24 220/376/24 224/378/24 223/379/24
f 223/379/25 224/378/25 222/380/25 221/381/25
f 221/381/26 222/380/26 218/382/26 217/383/26
f 219/384/27 223/385/27 221/386/27 217/387/27
